<?xml version="1.0" encoding="UTF-8" standalone="no"?><!DOCTYPE svg PUBLIC "-//W3C//DTD SVG 1.1//EN" "http://www.w3.org/Graphics/SVG/1.1/DTD/svg11.dtd"><svg width="100%" height="100%" viewBox="0 0 480 240" version="1.1" xmlns="http://www.w3.org/2000/svg" xmlns:xlink="http://www.w3.org/1999/xlink" xml:space="preserve" xmlns:serif="http://www.serif.com/" style="fill-rule:evenodd;clip-rule:evenodd;stroke-linecap:round;stroke-linejoin:round;stroke-miterlimit:1.5;"><clipPath id="_clip1"><rect x="158.548" y="0" width="162.903" height="162.903"/></clipPath><g clip-path="url(#_clip1)"><g><g><path d="M320.848,19.511l0,123.881c0,10.519 -8.54,19.059 -19.059,19.059l-123.881,0c-10.519,0 -19.059,-8.54 -19.059,-19.059l0,-123.881c0,-10.519 8.54,-19.059 19.059,-19.059l123.881,0c10.519,0 19.059,8.54 19.059,19.059Z" style="fill:#ff9914;stroke:#000;stroke-width:1.09px;"/></g><g><path d="M300.684,5.178c8.279,0.227 8.038,10.714 6.65,16.556c0.935,0.025 1.849,0.278 2.664,0.736c1.37,0.767 2.373,2.052 2.783,3.567c1.241,4.525 -1.962,10.632 -4.16,14.523c2.694,4.825 4.475,10.233 5.395,15.66c1.6,9.441 1.472,19.765 1.671,29.36c0.207,9.928 0.587,20.602 0.086,30.44c-0.534,9.136 -1.932,22.882 -9.39,29.234c-8.012,6.827 -22.945,8.367 -33.087,9.227c-8.639,0.691 -17.301,1.059 -25.968,1.106c-12.019,0.208 -24.042,-0.008 -36.046,-0.646c-6.789,-0.4 -13.825,-1.048 -20.481,-2.367c-7.166,-1.418 -14.81,-3.603 -19.822,-9.242c-4.989,-5.823 -6.725,-15.372 -7.33,-22.814c-0.909,-11.185 -0.432,-22.607 -0.181,-33.827l0.345,-12.886c0.373,-11.827 1.136,-22.594 6.925,-33.209c-1.955,-3.347 -3.906,-7.179 -4.378,-11.078c-0.483,-3.984 1.42,-7.367 5.651,-7.786c-1.095,-4.645 -1.593,-11.634 2.451,-15.091c1.251,-1.069 3.595,-1.732 5.194,-1.406c8.396,1.714 16.779,9.97 21.876,16.345c3.38,-0.979 8.269,-1.748 11.759,-2.224c12.257,-1.561 24.626,-2.048 36.968,-1.455c9.017,0.38 18.902,1.262 27.653,3.584c4.528,-5.94 14.94,-15.918 22.774,-16.308Z" style="fill:#022044;fill-rule:nonzero;"/></g><g><path d="M292.313,12.934c1.585,-1.455 6.336,-4.012 8.469,-3.911c3.822,0.181 3.62,5.923 3.421,8.643c-0.21,2.854 -0.961,5.642 -1.789,8.44c12.651,-3.958 4.507,9.783 1.941,14.537c-0.066,0.124 0.216,0.682 0.282,0.818c7.497,12.346 6.786,28.731 7.104,42.739l0.356,17.3c0.149,10.402 0.116,19.43 -2.237,29.649c-3.261,14.165 -10.347,15.295 -22.884,18.102c-12.076,2.015 -23.764,2.549 -36.005,2.762c-7.478,0.172 -14.959,0.186 -22.437,0.041c-5.764,-0.084 -11.525,-0.288 -17.28,-0.614c-6.243,-0.339 -13.99,-0.953 -20.085,-2.269c-4.059,-0.532 -10.339,-2.599 -13.835,-4.732c-5.256,-3.205 -7.291,-9.211 -8.539,-14.978c-2,-9.248 -1.923,-19.653 -1.751,-29.105c0.071,-4.912 0.177,-9.823 0.318,-14.733c0.367,-14.309 -0.221,-32.34 7.695,-44.796c-0.54,-1.159 -1.307,-2.297 -1.897,-3.436c-1.029,-2.011 -2.033,-4.04 -2.639,-6.224c-1.733,-6.239 1.581,-6.488 6.444,-4.991c-1.424,-4.444 -3.206,-11.624 -0.702,-15.928c1.769,-3.041 7.76,0.465 9.644,1.965c3.709,2.199 8.164,6.791 11.039,9.979c0.844,0.936 2.407,3.017 3.108,3.692c1.415,-0.258 2.86,-0.664 4.284,-0.965c2.826,-0.601 5.672,-1.104 8.533,-1.508c9.924,-1.346 19.936,-1.938 29.949,-1.771c12.617,0.129 24.189,1.102 36.437,4.16c3.732,-4.327 8.169,-9.722 13.053,-12.869Z" style="fill:url(#_Linear2);fill-rule:nonzero;"/></g><g><path d="M191.17,149.173c-0.486,-7.122 0.592,-13.74 5.538,-19.285c8.158,-9.144 23.337,-11.936 35.033,-12.67c19.25,-1.208 53.888,1.096 55.327,26.881c0.096,1.721 0.011,3.43 -0.091,5.154c-12.076,2.015 -23.764,2.549 -36.005,2.762c-7.478,0.172 -14.959,0.186 -22.437,0.041c-5.764,-0.084 -11.525,-0.288 -17.28,-0.614c-6.243,-0.339 -13.99,-0.953 -20.085,-2.269Z" style="fill:#febe51;fill-rule:nonzero;"/></g><g><path d="M233.025,131.102c0.764,0.01 1.16,0.373 1.536,1.048c1.927,3.458 6.149,4.288 8.643,0.892c0.446,-0.607 1.818,-2.783 2.63,-1.285c0.3,0.554 -0.364,2.075 -0.62,2.625c-0.329,0.613 -0.732,1.184 -1.202,1.698c-3.415,3.743 -8.874,2.455 -10.966,-1.928c-0.488,-1.024 -0.934,-2.145 -0.023,-3.051Z" style="fill:#fe9610;fill-rule:nonzero;"/></g><g><path d="M213.013,131.117c0.927,-0.084 1.373,0.473 1.854,1.219c1.699,2.638 4.575,3.687 7.151,1.457c0.895,-0.775 1.802,-2.602 2.985,-2.734c1.029,0.45 0.378,2.212 0.053,2.953c-1.089,2.338 -3.359,3.979 -5.961,4.025c-3.146,0.056 -6.321,-2.692 -6.622,-5.826c-0.046,-0.48 0.224,-0.792 0.539,-1.094Z" style="fill:#fe9610;fill-rule:nonzero;"/></g><g><path d="M264.614,131.026c0.958,-0.013 1.355,0.713 1.106,1.528c-1.891,6.196 -8.668,7.562 -12.201,1.949c-0.458,-0.825 -1.246,-2.487 -0.326,-3.255c0.151,-0.126 0.535,-0.219 0.689,-0.099c1.561,1.216 2.261,3.428 4.494,3.78c1.666,0.264 3.119,-0.353 4.202,-1.626c0.643,-0.757 1.201,-1.757 2.036,-2.278Z" style="fill:#fe9610;fill-rule:nonzero;"/></g><g><path d="M292.313,12.934c1.585,-1.455 6.336,-4.012 8.469,-3.911c3.822,0.181 3.62,5.923 3.421,8.643c-0.21,2.854 -0.961,5.642 -1.789,8.44c12.651,-3.958 4.507,9.783 1.941,14.537c-0.066,0.124 0.216,0.682 0.282,0.818c-0.442,-0.243 -1.537,-1.685 -1.958,-2.147c-3.514,-3.858 -7.446,-6.682 -11.984,-9.238c3.427,-6.106 7.326,-11.937 10.622,-18.106c0.327,-0.611 0.864,-1.455 1.1,-2.017c-0.032,-0.192 -0.009,-0.253 -0.249,-0.382c-2.591,-1.226 -5.765,1.064 -7.95,2.303c-0.473,0.268 -1.488,1.047 -1.905,1.059Z" style="fill:#5e738b;fill-rule:nonzero;"/></g><g><path d="M176.966,26.179c-1.424,-4.444 -3.206,-11.624 -0.702,-15.928c1.769,-3.041 7.76,0.465 9.644,1.965c-0.693,-0.185 -1.29,-0.683 -1.942,-1.022c-1.903,-0.987 -4.616,-2.848 -6.766,-1.547c-0.29,0.187 -0.204,0.089 -0.34,0.364c0.24,0.888 1.01,2.076 1.471,2.894c3.261,5.784 6.959,11.396 10.224,17.174c-3.225,1.862 -6.338,3.849 -9.122,6.338c-0.678,0.606 -4.089,4.328 -4.375,4.411c-0.54,-1.159 -1.307,-2.297 -1.897,-3.436c-1.029,-2.011 -2.033,-4.04 -2.639,-6.224c-1.733,-6.239 1.581,-6.488 6.444,-4.991Z" style="fill:#5e738b;fill-rule:nonzero;"/></g><g><path d="M245.828,78.324c0.288,-5.761 2.389,-10.817 5.622,-15.542c9.145,-13.367 28.275,-16.191 41.408,-6.773c6.619,4.68 11.081,11.823 12.381,19.825c1.353,8.113 -0.602,16.429 -5.427,23.09c-4.934,6.797 -11.837,10.642 -20.038,11.954c-11.248,1.355 -21.393,-2.791 -28.242,-11.909c-1.686,3.034 -7.056,12.225 -9.887,13.777c-0.939,0.515 -2.087,0.649 -3.112,0.321c-0.666,-0.213 -1.243,-0.617 -1.75,-1.09c-2.558,-2.387 -7.325,-9.909 -8.965,-13.088c-0.426,0.559 -0.865,1.107 -1.318,1.644c-5.124,6.104 -12.473,9.909 -20.415,10.571c-7.992,0.657 -15.917,-1.895 -22.023,-7.094c-6.118,-5.303 -9.864,-12.83 -10.406,-20.908c-0.56,-8.157 2.163,-16.2 7.563,-22.34c5.592,-6.412 12.906,-9.674 21.325,-10.238c0.129,-0.007 0.259,-0.013 0.388,-0.019c7.744,-0.344 15.304,2.428 20.99,7.697c5.381,5 9.29,12.872 9.575,20.255c3.814,-2.594 8.468,-2.696 12.33,-0.134Z" style="fill:#022044;fill-rule:nonzero;"/></g><g><path d="M203.008,55.142c0.146,-0.009 0.291,-0.017 0.437,-0.023c6.421,-0.203 12.661,2.148 17.353,6.537c5.093,4.784 8.061,11.407 8.243,18.392c0.089,2.702 0.014,3.136 -1.162,5.489c-0.867,2.007 -1.501,3.968 -1.637,6.156c-0.143,2.303 -2.613,5.244 -4.131,6.862c-4.747,5.061 -10.818,7.707 -17.733,7.938c-6.331,0.143 -12.426,-1.881 -17.247,-6.036c-5.168,-4.475 -8.337,-10.826 -8.805,-17.646c-0.5,-6.884 1.761,-13.685 6.286,-18.898c4.906,-5.633 11.052,-8.257 18.396,-8.771Z" style="fill:#f1f1f1;fill-rule:nonzero;"/></g><g><path d="M205.473,66.444c7.889,-0.377 14.596,5.7 14.996,13.588c0.4,7.888 -5.658,14.612 -13.545,15.035c-7.919,0.424 -14.677,-5.664 -15.078,-13.584c-0.402,-7.92 5.706,-14.66 13.627,-15.039Z" style="fill:#022044;fill-rule:nonzero;"/></g><g><path d="M211.89,70.395c2.516,-0.321 4.819,1.45 5.156,3.964c0.336,2.514 -1.42,4.828 -3.932,5.18c-2.534,0.355 -4.872,-1.421 -5.211,-3.956c-0.339,-2.536 1.45,-4.863 3.988,-5.187Z" style="fill:#f1f1f1;fill-rule:nonzero;"/></g><g><path d="M274.06,55.141c6.208,-0.42 12.737,1.866 17.549,5.762c5.25,4.252 8.587,10.424 9.268,17.146c0.771,6.93 -1.285,13.879 -5.704,19.274c-4.653,5.698 -10.583,8.397 -17.78,9.113c-6.84,0.296 -12.865,-1.411 -18.155,-5.904c-2.099,-1.789 -3.896,-3.905 -5.321,-6.266c-0.839,-1.384 -0.764,-1.627 -0.886,-3.231c-0.143,-1.88 -0.78,-3.844 -1.554,-5.56c-0.532,-1.197 -1.182,-1.888 -1.232,-3.252c-0.531,-14.413 9.371,-26.046 23.815,-27.083Z" style="fill:#f1f1f1;fill-rule:nonzero;"/></g><g><path d="M272.083,66.466c7.886,-0.553 14.727,5.395 15.274,13.282c0.548,7.887 -5.404,14.723 -13.291,15.266c-7.881,0.543 -14.71,-5.403 -15.257,-13.283c-0.547,-7.88 5.394,-14.713 13.274,-15.265Z" style="fill:#022044;fill-rule:nonzero;"/></g><g><path d="M278.997,70.324c2.536,-0.122 4.691,1.837 4.81,4.374c0.119,2.537 -1.842,4.689 -4.379,4.805c-2.533,0.116 -4.68,-1.842 -4.799,-4.374c-0.119,-2.533 1.836,-4.683 4.369,-4.804Z" style="fill:#f1f1f1;fill-rule:nonzero;"/></g><g><path d="M239.123,80.443c2.336,-0.31 4.997,0.993 6.512,2.737c2.375,2.736 3.894,6.815 3.844,10.453c-0.009,0.615 -0.168,1.318 -0.403,1.882c-1.462,3.181 -6.617,11.529 -8.951,13.672c-0.07,0.031 -0.102,0.049 -0.183,0.066c-0.294,0.062 -0.532,-0.046 -0.761,-0.22c-1.905,-1.448 -9.034,-12.525 -9.29,-14.812c-0.365,-3.259 1.443,-7.905 3.432,-10.441c1.478,-1.885 3.42,-3.041 5.799,-3.337Z" style="fill:url(#_Linear3);fill-rule:nonzero;"/></g><g><path d="M236.956,81.718c0.891,0.01 2.055,0.372 2.15,1.381c0.2,2.119 -3.314,3.377 -4.61,4.555c-0.823,0.749 -1.2,1.271 -1.77,2.175c-0.192,0.331 -0.41,0.557 -0.659,0.843c-0.249,-0.223 -0.495,-0.449 -0.74,-0.677c0.049,-3.037 2.564,-7.53 5.627,-8.277Z" style="fill:#febe51;fill-rule:nonzero;"/></g><g><path d="M204.514,35.376c4.157,-0.488 9.379,0.978 12.616,3.606c1.65,1.34 3.087,3.156 3.299,5.342c0.257,2.655 -1.357,4.991 -4.171,4.88c-1.469,-0.063 -2.902,-0.665 -4.314,-1.066c-3.014,-0.867 -6.162,-1.175 -9.287,-0.91c-2.265,0.155 -4.459,0.698 -6.636,1.335c-2.277,0.666 -5.434,2.269 -7.578,0.478c-2.184,-1.825 -1.044,-4.931 0.576,-6.713c3.96,-4.355 9.733,-6.476 15.495,-6.951Z" style="fill:#022044;fill-rule:nonzero;"/></g><g><path d="M272.046,35.376c1.4,-0.104 2.808,-0.068 4.201,0.107c5.241,0.636 11.1,3.123 14.545,7.267c1.458,1.753 2.302,4.802 0.118,6.393c-1.489,1.085 -3.299,0.75 -4.917,0.167c-2.127,-0.766 -4.262,-1.348 -6.494,-1.757c-3.77,-0.678 -7.642,-0.537 -11.352,0.415c-2.3,0.598 -5.486,2.16 -7.598,0.389c-2.552,-2.14 -1.685,-5.728 0.258,-7.942c2.9,-3.305 6.967,-4.674 11.24,-5.039Z" style="fill:#022044;fill-rule:nonzero;"/></g></g></g><clipPath id="_clip4"><rect x="60.722" y="179.068" width="358.555" height="60.932"/></clipPath><g clip-path="url(#_clip4)"><g><path d="M119.411,192.988c12.694,-0.721 23.569,8.985 24.291,21.679c0.722,12.694 -8.982,23.57 -21.675,24.294c-12.696,0.724 -23.575,-8.982 -24.297,-21.678c-0.722,-12.696 8.985,-23.574 21.682,-24.295Z" style="fill:#1571fd;fill-rule:nonzero;"/><path d="M118.561,198.908c9.416,-1.191 18.024,5.455 19.253,14.866c1.23,9.412 -5.382,18.046 -14.788,19.314c-9.461,1.275 -18.156,-5.382 -19.392,-14.848c-1.236,-9.466 5.456,-18.134 14.927,-19.332Z" style="fill:#f4f8ff;fill-rule:nonzero;"/><path d="M130.956,213.956c0.583,2.842 0.331,5.438 -1.312,7.914c-1.354,2.057 -3.472,3.489 -5.885,3.98c-2.439,0.477 -4.968,-0.054 -7.01,-1.47c-2.084,-1.424 -3.43,-3.602 -3.893,-6.073c-0.487,-2.548 0.067,-5.186 1.54,-7.322c1.379,-2.04 3.52,-3.44 5.941,-3.885c2.667,-0.473 4.827,0.187 7.089,1.549c-1.549,0.112 -2.621,0.127 -3.74,1.391c-0.622,0.703 -0.932,1.629 -0.859,2.564c0.223,3.046 3.352,3.896 5.712,2.161l0.697,-0.893c0.202,-0.606 0.175,-1.7 0.885,-1.834c0.41,0.352 0.542,1.038 0.704,1.576l0.133,0.342Z" style="fill:#1571fd;"/><path d="M190.799,192.993c12.679,-0.701 23.531,8.995 24.256,21.672c0.725,12.677 -8.95,23.548 -21.626,24.297c-12.71,0.751 -23.616,-8.956 -24.343,-21.667c-0.727,-12.711 9.001,-23.599 21.713,-24.302Z" style="fill:#1571fd;fill-rule:nonzero;"/><path d="M189.934,198.912c9.426,-1.17 18.021,5.508 19.218,14.93c1.197,9.422 -5.454,18.037 -14.873,19.262c-9.458,1.23 -18.117,-5.455 -19.319,-14.917c-1.203,-9.462 5.509,-18.101 14.974,-19.275Z" style="fill:#f4f8ff;fill-rule:nonzero;"/><path d="M199.821,214.161c0.937,3.136 -0.229,6.946 -2.537,9.212c-1.759,1.725 -4.133,2.679 -6.597,2.651c-2.403,-0.019 -4.696,-1.008 -6.36,-2.742c-1.839,-1.888 -2.862,-4.304 -2.819,-6.946c0.036,-2.563 1.099,-5.004 2.952,-6.775c1.83,-1.761 4.292,-2.71 6.829,-2.632c1.529,0.044 3.278,0.47 4.36,1.621c-0.286,0.411 -1.839,0.066 -2.809,1.098c-1.299,1.382 -1.989,3.367 -0.487,4.904c0.702,0.706 1.664,1.09 2.659,1.063c1.392,-0.025 1.993,-0.567 2.875,-1.492c0.258,-0.694 0.438,-1.667 0.896,-2.026c0.676,0.225 0.853,1.397 1.037,2.063Z" style="fill:#1571fd;fill-rule:nonzero;"/><path d="M323.896,200.536c0.563,-0.743 1.143,-1.461 1.813,-2.113c2.822,-2.703 6.605,-4.168 10.509,-4.069c3.637,0.059 7.29,1.138 9.868,3.812c1.764,1.831 2.846,4.24 3.386,6.704c1.025,4.669 0.524,9.967 0.51,14.747c-0.01,3.494 0.101,7.01 0.034,10.499c-0.022,1.251 -0.179,2.73 -1.152,3.633c-1.088,1.009 -2.832,0.986 -4.219,0.958c-1.402,-0.028 -2.908,-0.162 -3.781,-1.434c-1.787,-2.603 -0.024,-19.807 -0.994,-24.394c-0.285,-1.348 -0.844,-2.664 -1.816,-3.661c-1.097,-1.126 -2.597,-1.592 -4.143,-1.603c-2.116,-0.015 -4.049,0.62 -5.556,2.132c-1.205,1.207 -1.794,2.62 -2.135,4.271c-0.496,2.398 -0.287,5.031 -0.285,7.475l0.014,10.783c0.065,2.849 0.161,6.223 -3.879,6.538c-2.381,0.186 -5.7,-0.37 -5.824,-3.442c-0.276,-6.882 0.142,-13.946 -0.112,-20.845c-0.163,-4.128 -2.609,-7.421 -7.032,-6.864c-7.822,0.984 -7.005,8.299 -6.974,14.176l0.046,9.875c0.015,4.31 0.166,7.226 -5.371,7.09c-2.236,-0.055 -4.512,-1.339 -4.488,-3.839c0.019,-2.006 0.057,-4.001 0.057,-6.014l0.01,-15.276c0.012,-3.898 -0.185,-8.273 0.144,-12.125c0.281,-3.268 6.732,-3.685 8.555,-1.581c1.16,1.341 1.078,2.346 1.059,4.041c0.336,-0.484 0.69,-0.955 1.061,-1.413c2.168,-2.649 5.137,-3.834 8.467,-4.163c5.395,-0.426 9.425,1.494 12.228,6.103Z" style="fill:#f4f8ff;fill-rule:nonzero;"/><path d="M266.515,194.261c11.678,-1.385 20.435,6.832 20.502,18.451c0.122,1.846 -0.064,4.847 -2.525,5.003c-2.676,0.169 -5.561,0.094 -8.28,0.092l-16.963,0.012c0.29,1.364 0.515,2.322 1.155,3.572c1.232,2.426 3.397,4.25 5.997,5.054c2.765,0.878 6.471,0.628 9.123,-0.558c2.545,-1.14 3.495,-2.535 6.44,-1.598c0.1,0.054 0.194,0.114 0.287,0.179c1.984,1.385 3.086,4.158 1.419,6.177c-2.442,2.683 -6.915,3.949 -10.407,4.532c-20.099,3.36 -30.277,-18.207 -19.682,-33.503c2.901,-4.186 7.868,-6.682 12.933,-7.413Zm0.53,8.41c-4.572,1.165 -6.919,3.617 -7.755,8.319l10.873,0.003l7.394,-0.013c-0.173,-6.003 -4.82,-9 -10.513,-8.308Z" style="fill:#f4f8ff;"/><path d="M75.943,193.255c0.562,-0.019 1.125,-0.015 1.687,0.009c2.639,0.096 5.282,0.568 7.772,1.447c1.579,0.595 3.458,1.285 4.632,2.544c1.585,1.698 1.158,4.719 -0.549,6.171c-2.416,2.055 -5.126,0.003 -7.542,-0.839c-1.249,-0.435 -2.49,-0.808 -3.819,-0.883c-2.657,-0.2 -7.093,0.005 -7.299,3.571c-0.127,3.243 3.821,3.948 6.201,4.574c3.996,1.051 8.43,1.764 11.841,4.23c3.239,2.362 4.152,5.861 3.905,9.667c-0.382,5.884 -4.02,9.696 -9.648,11.072c-2.973,0.727 -5.543,0.743 -8.585,0.539c-4.04,-0.409 -8.93,-1.877 -12.342,-4.335c-0.797,-0.574 -1.468,-2.12 -1.475,-3.131c-0.008,-1.151 0.393,-2.303 1.235,-3.161c3.153,-3.216 6.269,0.344 9.627,1.371c2.146,0.83 3.901,0.918 6.15,0.884c2.458,-0.037 5.729,-0.991 5.563,-4.093c-0.168,-3.133 -5.215,-3.871 -7.562,-4.503c-3.779,-1.018 -7.743,-1.794 -10.872,-4.329c-4.925,-3.893 -4.899,-11.749 -0.778,-16.22c3.108,-3.373 7.435,-4.367 11.859,-4.586Z" style="fill:#f4f8ff;fill-rule:nonzero;"/><path d="M242.168,194.442c1.66,-0.027 2.705,-0.051 4.126,0.982c2.013,1.462 1.981,5.014 0.599,6.859c-1.473,1.856 -3.931,1.395 -5.97,1.675c-2.715,0.372 -5.096,1.82 -6.479,4.239c-1.837,3.21 -1.488,7.248 -1.471,10.86l0.041,9.063c0.021,5.848 -0.753,7.184 -7.248,6.386c-0.546,-0.067 -1.208,-0.622 -1.634,-0.973c-1.055,-1.691 -0.907,-2.964 -0.897,-4.907c0.022,-4.545 0.056,-9.089 0.046,-13.635l-0.022,-10.584c-0.003,-1.879 -0.343,-6.988 0.848,-8.345c1.464,-1.669 6.239,-1.792 7.846,-0.182c1.294,1.298 1.049,3.552 1.038,5.247c2.197,-3.958 4.567,-6.142 9.178,-6.686Z" style="fill:#f4f8ff;fill-rule:nonzero;"/><path d="M405.387,213.879c1.766,-2.326 3.675,-3.433 6.551,-3.373c6.485,0.135 7.396,5.823 7.173,11.063c-0.129,3.035 0.038,6.096 0.007,9.116c-0.021,1.872 -1.143,2.527 -2.844,2.446c-3.098,-0.126 -2.132,-3.409 -2.321,-5.523c-0.276,-3.091 0.965,-8.546 -1.009,-11.146c-1.042,-1.373 -4.056,-1.133 -5.13,0.248c-2.106,2.708 -1.323,9.134 -1.306,12.632c0.058,1.77 0.142,2.136 -1.165,3.492c-1.148,1.189 -3.469,0.139 -3.735,-1.036c-1.062,-4.698 1.116,-11.03 -1.255,-15.341c-0.259,-0.471 -1.262,-0.947 -1.799,-0.936c-5.498,-0.024 -4.406,5.329 -4.548,9.031c-0.079,2.032 0.647,6.516 -0.76,8.067c-0.637,0.701 -3.345,0.673 -3.881,-0.239c-0.307,-0.524 -0.402,-1.026 -0.434,-1.655c-0.12,-5.784 -0.101,-11.572 -0.007,-17.36c0.034,-2.075 0.826,-2.943 3.041,-2.715c2.381,0.245 1.713,1.987 2.178,2.574c1.492,-1.705 2.079,-2.056 4.246,-2.663c3.373,-0.307 5.151,0.524 6.998,3.319Z" style="fill:#fd8c15;fill-rule:nonzero;"/><path d="M373.917,210.576c5.398,-0.414 10.02,0.861 10.755,7.101c0.421,3.567 -0.046,7.285 0.173,10.884c-0.005,0.74 0.115,3.362 -0.558,3.84c-2.037,1.451 -4.416,0.922 -4.629,-1.636c-0.716,0.087 -2.667,2.4 -5.29,2.57c-2.619,0.17 -4.179,-0.148 -6.358,-1.82c-2.896,-2.935 -2.745,-8.483 0.848,-10.805c3.17,-2.05 7.286,-1.557 10.81,-0.869c0.194,-6.49 -5.444,-4.515 -9.517,-3.896c-2.254,0.342 -3.357,-2.861 -1.354,-4.064c1.425,-0.856 3.496,-1.085 5.12,-1.306Zm0.929,12.346c-1.25,0.17 -2.321,0.353 -3.155,1.457c-0.472,0.616 -0.666,1.402 -0.536,2.167c0.409,2.472 2.992,2.872 5.048,2.514c3.074,-1.124 3.579,-2.35 3.508,-5.473c-1.9,-0.516 -2.897,-0.676 -4.866,-0.665Z" style="fill:#fd8c15;"/><path d="M147.724,215.663c0.152,-0.013 0.936,0.02 0.996,0.062c2.407,1.648 5.101,7.906 7.439,9.206c2.671,-0.006 6.249,-10.291 8.984,-9.067c0.941,1.138 2.933,7.851 2.578,9.558c-0.127,0.612 -2.431,3.561 -2.995,4.327c-2.183,3.041 -4.386,6.075 -6.622,9.076c-0.633,0.85 -1.96,1.721 -2.813,0.637c-3.413,-4.334 -6.692,-8.867 -9.796,-13.429c-0.805,-1.183 -0.403,-2.23 -0.125,-3.506c0.569,-1.574 1.293,-5.828 2.354,-6.866Z" style="fill:#fd8c15;fill-rule:nonzero;"/><path d="M118.903,179.172c3.689,-0.424 9.568,0.473 12.725,2.281c4.157,2.38 2.193,9.28 -2.956,8.18c-1.994,-0.426 -4.057,-1.192 -6.077,-1.37c-2.646,-0.233 -5.215,0.047 -7.803,0.591c-2.967,0.832 -5.276,1.998 -8.052,3.271c-1.132,0.519 -2.812,0.139 -3.786,-0.64c-0.91,-0.725 -1.484,-1.791 -1.589,-2.95c-0.549,-6.072 13.007,-9.027 17.538,-9.364Z" style="fill:#1571fd;fill-rule:nonzero;"/><path d="M191.507,179.181c5.083,-0.15 17.127,2.312 19.518,7.22c0.493,0.993 0.56,2.145 0.184,3.188c-0.378,1.063 -1.164,1.931 -2.184,2.411c-2.652,1.228 -5.624,-1.316 -8.671,-2.419c-6.267,-2.07 -10.58,-1.532 -16.6,0.193c-2.151,0.616 -4.548,-1.481 -4.761,-3.92c-0.111,-1.226 0.283,-2.444 1.091,-3.373c2.084,-2.374 8.351,-3.139 11.423,-3.3Z" style="fill:#1571fd;fill-rule:nonzero;"/><path d="M357.914,225.052c2.223,-0.239 4.217,1.377 4.442,3.602c0.227,2.225 -1.402,4.208 -3.63,4.42c-2.206,0.21 -4.167,-1.402 -4.391,-3.607c-0.225,-2.205 1.375,-4.177 3.579,-4.415Z" style="fill:#fd8c15;fill-rule:nonzero;"/></g></g><defs><linearGradient id="_Linear2" x1="0" y1="0" x2="1" y2="0" gradientUnits="userSpaceOnUse" gradientTransform="matrix(-6.874227,-144.612972,144.612972,-6.874227,242.004677,151.101267)"><stop offset="0" style="stop-color:#667a92;stop-opacity:1"/><stop offset="1" style="stop-color:#8998aa;stop-opacity:1"/></linearGradient><linearGradient id="_Linear3" x1="0" y1="0" x2="1" y2="0" gradientUnits="userSpaceOnUse" gradientTransform="matrix(-0.757275,-28.453075,28.453075,-0.757275,240.048003,109.034389)"><stop offset="0" style="stop-color:#ff9813;stop-opacity:1"/><stop offset="1" style="stop-color:#ffb337;stop-opacity:1"/></linearGradient></defs></svg>